<svg width="24" height="24" viewBox="0 0 24 24" fill="none" xmlns="http://www.w3.org/2000/svg">
<path d="M22.5 22.5H1.5V20.25H22.5V22.5ZM22.5 15.75H1.5V13.5H22.5V15.75ZM1.5 5.25C1.5 4.25544 1.89509 3.30161 2.59835 2.59835C3.30161 1.89509 4.25544 1.5 5.25 1.5H18.75C19.7446 1.5 20.6984 1.89509 21.4016 2.59835C22.1049 3.30161 22.5 4.25544 22.5 5.25C22.5 6.24456 22.1049 7.19839 21.4016 7.90165C20.6984 8.60491 19.7446 9 18.75 9H5.25C4.25544 9 3.30161 8.60491 2.59835 7.90165C1.89509 7.19839 1.5 6.24456 1.5 5.25ZM5.25 3.75C4.85218 3.75 4.47064 3.90804 4.18934 4.18934C3.90804 4.47064 3.75 4.85218 3.75 5.25C3.75 5.64782 3.90804 6.02936 4.18934 6.31066C4.47064 6.59196 4.85218 6.75 5.25 6.75H18.75C19.1478 6.75 19.5294 6.59196 19.8107 6.31066C20.092 6.02936 20.25 5.64782 20.25 5.25C20.25 4.85218 20.092 4.47064 19.8107 4.18934C19.5294 3.90804 19.1478 3.75 18.75 3.75H5.25Z" fill="white"/>
</svg>

