<svg width="21" height="22" viewBox="0 0 21 22" fill="none" xmlns="http://www.w3.org/2000/svg">
<path d="M2.12622 3.94625L2.73168 3.09861C2.41416 2.87181 1.99652 2.84148 1.64957 3.02003C1.30262 3.19857 1.08455 3.55605 1.08455 3.94625H2.12622ZM2.12622 17.8352H1.08455C1.08455 18.2254 1.30262 18.5829 1.64957 18.7614C1.99652 18.94 2.41416 18.9096 2.73168 18.6828L2.12622 17.8352ZM11.8485 10.8907L12.4539 11.7384C12.7277 11.5428 12.8901 11.2271 12.8901 10.8907C12.8901 10.5543 12.7277 10.2386 12.4539 10.0431L11.8485 10.8907ZM1.08455 3.94625V17.8352H3.16789V3.94625H1.08455ZM2.73168 18.6828L12.4539 11.7384L11.243 10.0431L1.52076 16.9875L2.73168 18.6828ZM12.4539 10.0431L2.73168 3.09861L1.52076 4.79389L11.243 11.7384L12.4539 10.0431ZM17.7513 3.2518V18.5296H19.8346V3.2518H17.7513Z" fill="#EAF0FF"/>
</svg>
