<svg width="22" height="22" viewBox="0 0 22 22" fill="none" xmlns="http://www.w3.org/2000/svg">
<path d="M19.6676 17.8352L19.0621 18.6828C19.3797 18.9096 19.7973 18.94 20.1443 18.7614C20.4912 18.5829 20.7093 18.2254 20.7093 17.8352H19.6676ZM19.6676 3.94624H20.7093C20.7093 3.55605 20.4912 3.19857 20.1443 3.02002C19.7973 2.84148 19.3797 2.8718 19.0621 3.0986L19.6676 3.94624ZM9.94535 10.8907L9.33989 10.0431C9.06614 10.2386 8.90368 10.5543 8.90368 10.8907C8.90368 11.2271 9.06614 11.5428 9.33989 11.7384L9.94535 10.8907ZM20.7093 17.8352V3.94624H18.6259V17.8352H20.7093ZM19.0621 3.0986L9.33989 10.0431L10.5508 11.7384L20.2731 4.79389L19.0621 3.0986ZM9.33989 11.7384L19.0621 18.6828L20.2731 16.9875L10.5508 10.0431L9.33989 11.7384ZM4.04255 18.5296V3.2518H1.95921V18.5296H4.04255Z" fill="#EAF0FF"/>
</svg>
