<svg width="22" height="22" viewBox="0 0 22 22" fill="none" xmlns="http://www.w3.org/2000/svg">
<path d="M4 8.8V22H0V8.8H4ZM8 22C7.46957 22 6.96086 21.7682 6.58579 21.3556C6.21071 20.9431 6 20.3835 6 19.8V8.8C6 8.195 6.22 7.645 6.59 7.249L13.17 0L14.23 1.166C14.5 1.463 14.67 1.87 14.67 2.321L14.64 2.673L13.69 7.7H20C20.5304 7.7 21.0391 7.93179 21.4142 8.34437C21.7893 8.75695 22 9.31652 22 9.9V12.1C22 12.386 21.95 12.65 21.86 12.903L18.84 20.658C18.54 21.45 17.83 22 17 22H8ZM8 19.8H17.03L20 12.1V9.9H11.21L12.34 4.048L8 8.833V19.8Z" fill="white"/>
</svg>
