<svg width="22" height="22" viewBox="0 0 22 22" fill="none" xmlns="http://www.w3.org/2000/svg">
<path d="M18 13.2V0H22V13.2H18ZM14 0C14.5304 0 15.0391 0.231785 15.4142 0.644365C15.7893 1.05695 16 1.61652 16 2.2V13.2C16 13.805 15.78 14.355 15.41 14.751L8.83 22L7.77 20.834C7.5 20.537 7.33 20.13 7.33 19.679L7.36 19.327L8.31 14.3H2C1.46957 14.3 0.960859 14.0682 0.585787 13.6556C0.210714 13.2431 0 12.6835 0 12.1V9.9C0 9.614 0.0499992 9.35 0.139999 9.097L3.16 1.342C3.46 0.549999 4.17 0 5 0H14ZM14 2.2H4.97L2 9.9V12.1H10.79L9.66 17.952L14 13.167V2.2Z" fill="white"/>
</svg>
